ply
format ascii 1.0
element vertex 17
property float x
property float y
property float z
end_header
2.25836658478 43.8161315918 30.3311672211 
42.9638748169 37.0051765442 33.913772583 
-42.7663497925 39.8878250122 33.1604995728 
-29.0346069336 -50.0165176392 2.88596463203 
35.6149215698 -50.9587249756 5.84130001068 
72.6932601929 34.9723396301 3.22150850296 
28.9494056702 48.184135437 5.44255685806 
-22.3371009827 51.6535758972 5.41322517395 
-46.1188278198 -34.8050994873 32.8796386719 
-46.3241615295 3.57453274727 33.0633926392 
6.85450029373 -32.4149665833 -31.4009037018 
44.7363891602 -33.3969535828 -31.8670749664 
44.0719184875 18.3079071045 -32.4055976868 
-45.2215576172 40.1319122314 -30.7369880676 
19.3394317627 6.43086433411 33.3021850586 
-56.7782554626 -13.9412136078 -31.36353302 
-9.65483093262 16.2917690277 -30.3682537079 
